<svg xmlns="http://www.w3.org/2000/svg" xmlns:xlink="http://www.w3.org/1999/xlink" width="15.183" height="16" viewBox="0 0 15.183 16">
  <defs>
    <clipPath id="clip-path">
      <path id="Path_7" data-name="Path 7" d="M0-9.278H15.183v-16H0Z" transform="translate(0 25.278)" fill="none"/>
    </clipPath>
  </defs>
  <g id="Group_5" data-name="Group 5" clip-path="url(#clip-path)">
    <g id="Group_4" data-name="Group 4" transform="translate(0.414 0.414)">
      <path id="Path_6" data-name="Path 6" d="M-4.162-4.63a7.182,7.182,0,0,0-7.177,7.187H3.015A7.182,7.182,0,0,0-4.162-4.63Zm0-.8A3.59,3.59,0,0,0-.574-9.022a3.591,3.591,0,0,0-3.588-3.593A3.591,3.591,0,0,0-7.75-9.022,3.59,3.59,0,0,0-4.162-5.429Z" transform="translate(11.339 12.615)" fill="none" stroke="#252b2e" stroke-width="1"/>
    </g>
  </g>
</svg>
